HIERARCHY
ROOT Hips
{
	OFFSET 45.753399 -0.386190 53.336300
	CHANNELS 6 Xposition Yposition Zposition Xrotation Yrotation Zrotation
	JOINT spine
	{
		OFFSET 0.000000 -0.477352 8.301041
		CHANNELS 3 Xrotation Yrotation Zrotation
		JOINT spine1
		{
			OFFSET 0.000000 -0.000002 10.456501
			CHANNELS 3 Xrotation Yrotation Zrotation
			JOINT spine2
			{
				OFFSET 0.000000 -0.000002 10.019203
				CHANNELS 3 Xrotation Yrotation Zrotation
				JOINT Neck
				{
					OFFSET 0.000000 -1.226414 25.723503
					CHANNELS 3 Xrotation Yrotation Zrotation
					JOINT Head
					{
						OFFSET 0.000000 -0.000001 7.771751
						CHANNELS 3 Xrotation Yrotation Zrotation
						End Site
						{
							OFFSET 0.000000 6.203937 18.812004
						}
					}
				}
				JOINT RightShoulder
				{
					OFFSET -4.218800 0.587437 10.820000
					CHANNELS 3 Xrotation Yrotation Zrotation
					JOINT RightArm
					{
						OFFSET 0.000000 -0.000002 14.191399
						CHANNELS 3 Xrotation Yrotation Zrotation
						JOINT RightArmRoll
						{
							OFFSET 0.000000 -0.000001 7.164093
							CHANNELS 3 Xrotation Yrotation Zrotation
							JOINT RightForeArm
							{
								OFFSET 0.000000 -0.000003 20.866493
								CHANNELS 3 Xrotation Yrotation Zrotation
								JOINT RightForeArmRoll
								{
									OFFSET 0.000000 -0.000001 8.039215
									CHANNELS 3 Xrotation Yrotation Zrotation
									JOINT RightHand
									{
										OFFSET 0.000000 -0.000003 16.132996
										CHANNELS 3 Xrotation Yrotation Zrotation
										End Site
										{
											OFFSET 0.000000 -0.000000 0.100006
										}
									}
								}
							}
						}
					}
				}
				JOINT LeftShoulder
				{
					OFFSET 4.218800 0.587437 10.820000
					CHANNELS 3 Xrotation Yrotation Zrotation
					JOINT LeftArm
					{
						OFFSET 0.000000 -0.000002 14.191399
						CHANNELS 3 Xrotation Yrotation Zrotation
						JOINT LeftArmRoll
						{
							OFFSET 0.000000 -0.000001 7.164078
							CHANNELS 3 Xrotation Yrotation Zrotation
							JOINT LeftForeArm
							{
								OFFSET 0.000000 -0.000003 20.866508
								CHANNELS 3 Xrotation Yrotation Zrotation
								JOINT LeftForeArmRoll
								{
									OFFSET 0.000000 -0.000001 8.039215
									CHANNELS 3 Xrotation Yrotation Zrotation
									JOINT LeftHand
									{
										OFFSET 0.000000 -0.000003 16.132996
										CHANNELS 3 Xrotation Yrotation Zrotation
										End Site
										{
											OFFSET 0.000000 -0.000000 0.100006
										}
									}
								}
							}
						}
					}
				}
			}
		}
	}
	JOINT RightUpLeg
	{
		OFFSET -7.357731 1.131820 -1.349209
		CHANNELS 3 Xrotation Yrotation Zrotation
		JOINT RightUpLegRoll
		{
			OFFSET 0.000000 -0.000003 18.916801
			CHANNELS 3 Xrotation Yrotation Zrotation
			JOINT RightLeg
			{
				OFFSET 0.000000 0.000004 -23.425598
				CHANNELS 3 Xrotation Yrotation Zrotation
				JOINT RightLegRoll
				{
					OFFSET 0.000000 -0.000004 23.502296
					CHANNELS 3 Xrotation Yrotation Zrotation
					JOINT RightFoot
					{
						OFFSET 0.000000 -0.000003 19.561699
						CHANNELS 3 Xrotation Yrotation Zrotation
						JOINT RightToeBase
						{
							OFFSET 0.000000 -0.000003 16.352600
							CHANNELS 3 Xrotation Yrotation Zrotation
							End Site
							{
								OFFSET 0.006931 0.912835 7.919441
							}
						}
					}
				}
			}
		}
	}
	JOINT LeftUpLeg
	{
		OFFSET 7.357731 1.131820 -1.349209
		CHANNELS 3 Xrotation Yrotation Zrotation
		JOINT LeftUpLegRoll
		{
			OFFSET 0.000000 -0.000003 18.916901
			CHANNELS 3 Xrotation Yrotation Zrotation
			JOINT LeftLeg
			{
				OFFSET 0.000000 -0.000004 23.425499
				CHANNELS 3 Xrotation Yrotation Zrotation
				JOINT LeftLegRoll
				{
					OFFSET 0.000000 -0.000004 23.719498
					CHANNELS 3 Xrotation Yrotation Zrotation
					JOINT LeftFoot
					{
						OFFSET 0.000000 -0.000003 19.344398
						CHANNELS 3 Xrotation Yrotation Zrotation
						JOINT LeftToeBase
						{
							OFFSET 0.000000 -0.000003 16.352600
							CHANNELS 3 Xrotation Yrotation Zrotation
							End Site
							{
								OFFSET -0.031063 0.912836 7.919434
							}
						}
					}
				}
			}
		}
	}
}
MOTION
Frames: 9
Frame Time: 0.041667
45.000099 -1.028580 53.647598 -1.535688 0.215938 3.850678 3.199420 -0.491465 0.114919 10.403094 -0.965265 0.259680 12.048327 -0.962147 0.271423 -3.047509 -3.108527 -1.470184 -12.448922 5.010214 -0.864452 -9.466173 -65.524423 -11.576382 -73.044461 -130.281774 -49.973704 -0.000005 -0.000003 -0.000004 15.807027 -2.391333 0.941142 0.000001 0.000004 -3.001078 -5.000190 -7.998912 0.000123 -2.548740 57.711403 2.889054 -63.766380 128.622707 47.900451 -0.000002 -0.000001 -0.000000 14.208515 3.535859 0.437843 0.000005 0.000008 3.006999 -5.000215 7.998952 -0.000117 -89.615087 -159.545091 6.139948 -179.999991 0.000006 -1.251995 77.773397 4.310269 2.271064 -0.000003 -0.000006 2.153428 74.689280 7.199864 0.748901 26.600529 -7.345516 0.149956 -90.909053 162.759146 -5.062981 -0.000005 -0.000003 -1.230129 -100.988746 -4.626948 -3.546307 -0.000001 0.000001 -2.420208 70.831343 -7.128686 -1.356031 28.165170 7.345543 -0.349472 
45.007099 -1.022149 53.648602 -1.638527 0.210090 3.876699 3.194870 -0.491966 0.112660 10.393994 -0.966140 0.255077 12.039127 -0.963077 0.266837 -2.979949 -3.119155 -1.470973 -12.421807 5.030380 -0.866052 -9.482453 -65.585546 -11.598520 -73.044556 -130.112180 -50.004266 -0.000006 -0.000003 -0.000004 15.905935 -2.475064 0.939663 -0.000002 0.000003 -3.001078 -5.000193 -7.998913 0.000123 -2.503851 57.746306 2.839729 -63.728540 128.544898 47.848914 -0.000001 0.000000 -0.000000 14.166621 3.554529 0.435957 0.000007 0.000007 3.006999 -5.000215 7.998953 -0.000117 -89.517614 -159.525939 6.133421 -179.999991 0.000004 -1.252993 77.777481 4.319864 2.282040 -0.000004 -0.000006 2.152630 74.673577 7.195390 0.764205 26.604167 -7.345528 0.150560 -90.836086 162.805113 -5.041785 -0.000004 -0.000002 -1.230219 -100.947273 -4.627372 -3.547667 -0.000001 0.000001 -2.416518 70.715441 -7.129725 -1.363437 28.210546 7.345517 -0.355330 
45.007599 -1.015089 53.653801 -1.741691 0.205014 3.902654 3.190625 -0.492376 0.110559 10.385496 -0.966924 0.250817 12.030632 -0.963913 0.262591 -2.916153 -3.132816 -1.472637 -12.390183 5.051517 -0.868104 -9.499120 -65.647468 -11.621128 -73.050485 -129.949089 -50.037235 -0.000005 -0.000004 -0.000004 15.989609 -2.553874 0.938301 -0.000000 0.000003 -3.001079 -5.000192 -7.998913 0.000124 -2.459780 57.777882 2.791010 -63.686166 128.470490 47.793228 -0.000002 -0.000000 -0.000000 14.123999 3.571488 0.434439 0.000006 0.000007 3.006999 -5.000212 7.998954 -0.000118 -89.419853 -159.507061 6.127474 -179.999991 0.000005 -1.254003 77.780657 4.329561 2.292657 -0.000004 -0.000006 2.151732 74.658414 7.190850 0.779760 26.607799 -7.345526 0.151137 -90.760790 162.849769 -5.022481 -0.000005 -0.000004 -1.230520 -100.910499 -4.628977 -3.550307 -0.000001 0.000001 -2.413160 70.611711 -7.130521 -1.370424 28.250477 7.345499 -0.360485 
45.015999 -1.003699 53.657101 -1.845250 0.200790 3.928448 3.186759 -0.492669 0.108636 10.377696 -0.967583 0.246945 12.022931 -0.964617 0.258732 -2.856451 -3.149949 -1.475300 -12.353463 5.073770 -0.870668 -9.516160 -65.710497 -11.644196 -73.062957 -129.793675 -50.073001 -0.000004 -0.000004 -0.000003 16.055934 -2.627132 0.936967 0.000002 0.000004 -3.001079 -5.000195 -7.998913 0.000123 -2.416712 57.805619 2.743071 -63.638225 128.400002 47.732371 -0.000001 -0.000001 -0.000000 14.080946 3.586560 0.433318 0.000007 0.000008 3.006999 -5.000212 7.998952 -0.000117 -89.321819 -159.488824 6.122506 -179.999991 0.000006 -1.255001 77.782816 4.339364 2.303126 -0.000002 -0.000005 2.150719 74.643879 7.186205 0.795462 26.611341 -7.345519 0.151668 -90.682857 162.892813 -5.005195 -0.000004 -0.000003 -1.231060 -100.879169 -4.632330 -3.555348 0.000000 0.000002 -2.410161 70.522202 -7.130885 -1.377324 28.284228 7.345477 -0.364839 
45.022598 -1.001730 53.651096 -1.949760 0.197241 3.954464 3.183408 -0.492849 0.106921 10.370998 -0.968145 0.243524 12.016231 -0.965219 0.255316 -2.802043 -3.171013 -1.478902 -12.311057 5.097782 -0.873630 -9.534386 -65.774851 -11.668667 -73.081440 -129.644995 -50.111756 -0.000004 -0.000003 -0.000004 16.106404 -2.695305 0.935404 -0.000000 0.000003 -3.001079 -5.000192 -7.998913 0.000123 -2.373759 57.829531 2.694862 -63.585960 128.333203 47.667829 -0.000001 -0.000001 -0.000000 14.036958 3.599602 0.432598 0.000008 0.000007 3.007000 -5.000215 7.998952 -0.000117 -89.222788 -159.470792 6.118248 -179.999991 0.000007 -1.255999 77.784277 4.349288 2.313230 -0.000003 -0.000006 2.149569 74.629755 7.181485 0.811325 26.614974 -7.345520 0.152200 -90.602036 162.935023 -4.989571 -0.000005 -0.000004 -1.231810 -100.852353 -4.637048 -3.561707 -0.000002 0.000002 -2.407461 70.444140 -7.130858 -1.384328 28.313031 7.345470 -0.368573 
45.029900 -0.973761 53.677700 -2.055559 0.194149 3.981078 3.180700 -0.492942 0.105409 10.365599 -0.968674 0.240547 12.010737 -0.965784 0.252338 -2.753450 -3.195864 -1.483291 -12.263063 5.123789 -0.876826 -9.554381 -65.840414 -11.695200 -73.103931 -129.501971 -50.152385 -0.000006 -0.000002 -0.000004 16.144534 -2.759532 0.933458 0.000004 0.000003 -3.001079 -5.000197 -7.998914 0.000124 -2.330047 57.849858 2.645394 -63.529618 128.270324 47.599390 -0.000001 -0.000001 0.000000 13.991638 3.610724 0.432236 0.000007 0.000008 3.006999 -5.000213 7.998952 -0.000118 -89.122207 -159.452460 6.115106 -179.999991 0.000006 -1.256996 77.785521 4.359161 2.323141 -0.000003 -0.000005 2.148309 74.615568 7.176874 0.827006 26.618815 -7.345525 0.152733 -90.518537 162.976961 -4.974897 -0.000005 -0.000004 -1.232700 -100.828502 -4.642979 -3.569300 -0.000001 0.000001 -2.404929 70.373242 -7.130496 -1.391615 28.339095 7.345458 -0.371937 
45.017399 -0.964055 53.674400 -2.162328 0.191521 4.008192 3.178521 -0.492967 0.104073 10.361199 -0.969187 0.237953 12.006435 -0.966323 0.249744 -2.709954 -3.224018 -1.488371 -12.210277 5.151431 -0.880255 -9.575879 -65.906893 -11.723478 -73.132427 -129.363455 -50.197861 -0.000005 -0.000003 -0.000004 16.171318 -2.820081 0.931155 0.000002 0.000004 -3.001079 -5.000193 -7.998914 0.000124 -2.285809 57.867159 2.594990 -63.468925 128.211134 47.526618 0.000000 -0.000001 0.000000 13.945388 3.620107 0.432163 0.000008 0.000007 3.007000 -5.000215 7.998953 -0.000117 -89.020396 -159.434019 6.112530 -179.999991 0.000006 -1.256995 77.786552 4.369016 2.332662 -0.000003 -0.000006 2.146949 74.601614 7.172273 0.842474 26.622766 -7.345524 0.153248 -90.432866 163.018871 -4.960872 -0.000005 -0.000002 -1.233710 -100.807500 -4.649821 -3.578083 -0.000001 0.000001 -2.402548 70.309086 -7.129771 -1.399406 28.362448 7.345439 -0.374957 
45.022301 -0.956232 53.675304 -2.269812 0.189369 4.035726 3.176788 -0.492936 0.102887 10.357699 -0.969696 0.235686 12.002936 -0.966856 0.247472 -2.670836 -3.254978 -1.494058 -12.153298 5.180336 -0.883941 -9.598605 -65.974109 -11.753174 -73.164372 -129.229679 -50.244907 -0.000004 -0.000003 -0.000003 16.187769 -2.877241 0.928534 0.000002 0.000003 -3.001078 -5.000197 -7.998913 0.000122 -2.241298 57.881557 2.543962 -63.404906 128.155140 47.450478 -0.000001 -0.000000 0.000000 13.898010 3.627935 0.432374 0.000007 0.000008 3.006999 -5.000216 7.998954 -0.000118 -88.917602 -159.415536 6.110862 -179.999991 0.000007 -1.258006 77.787331 4.378755 2.342071 -0.000004 -0.000006 2.145512 74.587913 7.167705 0.857726 26.626798 -7.345530 0.153775 -90.345323 163.060330 -4.947681 -0.000005 -0.000004 -1.234840 -100.789072 -4.657497 -3.589063 -0.000002 0.000002 -2.400331 70.251344 -7.128710 -1.407425 28.383268 7.345442 -0.377656 
45.008598 -0.942943 53.704899 -2.377693 0.187702 4.063583 3.175419 -0.492868 0.101824 10.355000 -0.970216 0.233690 12.000138 -0.967397 0.245467 -2.635382 -3.288237 -1.500299 -12.092917 5.210123 -0.887888 -9.622260 -66.041782 -11.783927 -73.199554 -129.100274 -50.293565 -0.000005 -0.000003 -0.000003 16.194874 -2.931263 0.925635 -0.000003 0.000004 -3.001078 -5.000194 -7.998914 0.000122 -2.196729 57.893537 2.492620 -63.338605 128.101769 47.372365 -0.000001 -0.000000 -0.000000 13.849710 3.634380 0.432822 0.000009 0.000008 3.006999 -5.000215 7.998953 -0.000117 -88.814043 -159.396917 6.109868 -179.999991 0.000005 -1.258007 77.787973 4.388381 2.350979 -0.000002 -0.000006 2.144010 74.574485 7.163230 0.872874 26.630943 -7.345523 0.154284 -90.256305 163.101297 -4.935228 -0.000005 -0.000004 -1.236070 -100.773021 -4.665921 -3.600195 -0.000001 0.000001 -2.398259 70.199509 -7.127455 -1.415429 28.401660 7.345439 -0.380033 
